<?xml version="1.0" standalone="no"?>
<!DOCTYPE svg PUBLIC "-//W3C//DTD SVG 20010904//EN"
 "http://www.w3.org/TR/2001/REC-SVG-20010904/DTD/svg10.dtd">
<svg version="1.0" xmlns="http://www.w3.org/2000/svg"
 width="1123.000000pt" height="1123.000000pt" viewBox="0 0 1123.000000 1123.000000"
 preserveAspectRatio="xMidYMid meet">
<metadata>
Created by potrace 1.14, written by Peter Selinger 2001-2017
</metadata>
<g transform="translate(0.000000,1123.000000) scale(0.100000,-0.100000)"
fill="#000000" stroke="none">
<path d="M5895 7819 c-4 -6 -5 -12 -2 -15 2 -3 7 2 10 11 7 17 1 20 -8 4z"/>
<path d="M5495 7810 c-3 -5 -3 -10 1 -10 4 0 0 -8 -9 -18 -19 -21 -72 -29 -61
-9 5 9 4 9 -7 0 -7 -7 -17 -13 -22 -13 -4 0 -5 6 0 13 10 16 14 41 5 32 -4 -4
-7 -10 -8 -13 0 -4 -4 -15 -9 -25 -6 -15 -10 -16 -16 -5 -6 9 -9 9 -9 1 0 -6
-8 -12 -17 -12 -10 0 -32 -2 -50 -3 -34 -4 -39 8 -18 42 8 13 6 13 -8 2 -9 -8
-16 -17 -15 -20 0 -4 0 -16 -2 -27 l-1 -20 -9 20 c-8 18 -9 18 -9 2 -1 -10 -6
-15 -11 -12 -6 4 -8 10 -5 15 3 4 -3 7 -13 6 -10 0 -16 5 -14 14 2 8 0 11 -5
7 -4 -5 -8 -12 -8 -15 0 -4 -4 -13 -9 -21 -7 -10 -5 -12 5 -6 11 6 12 5 2 -5
-11 -12 -15 -11 -27 6 -14 19 -14 19 -13 -1 1 -12 -4 -20 -13 -20 -8 0 -19 -3
-25 -6 -9 -5 -31 -5 -37 1 -10 7 -37 6 -32 -1 3 -5 10 -7 15 -4 5 4 9 1 9 -5
0 -7 -7 -9 -16 -6 -9 3 -18 6 -20 6 -2 0 -4 8 -5 18 0 11 -2 12 -6 4 -3 -7 1
-19 7 -27 11 -13 8 -15 -18 -15 -17 0 -34 -4 -37 -10 -3 -5 -11 -10 -17 -10
-7 0 -6 6 2 15 8 9 8 15 2 15 -6 0 -14 -9 -17 -21 -6 -16 -13 -20 -36 -17 -24
4 -27 2 -16 -11 9 -12 9 -13 0 -7 -7 4 -21 2 -32 -4 -16 -8 -20 -6 -24 8 -4
13 -5 12 -6 -5 -1 -16 -9 -25 -28 -29 -16 -4 -38 -14 -50 -22 -13 -8 -23 -11
-23 -7 0 4 -7 2 -16 -6 -13 -11 -14 -9 -9 13 4 15 2 29 -4 32 -6 4 -9 1 -5 -7
2 -7 0 -26 -5 -41 -10 -23 -13 -25 -32 -15 -16 8 -24 8 -33 -1 -8 -8 -7 -10 5
-5 10 4 20 1 25 -6 4 -8 3 -10 -4 -5 -7 4 -12 2 -12 -4 0 -7 -6 -8 -19 -1 -21
12 -32 5 -24 -15 4 -10 0 -12 -13 -7 -12 4 -15 3 -10 -5 4 -8 -3 -16 -21 -23
-15 -6 -29 -9 -30 -7 -2 2 -10 -7 -19 -20 -9 -13 -21 -21 -27 -19 -7 2 -20 -5
-29 -16 -20 -23 -23 -16 -7 16 9 20 9 21 -4 4 -11 -14 -16 -15 -21 -5 -3 7 -3
3 0 -10 3 -13 -1 -28 -10 -37 -13 -13 -16 -13 -30 1 -9 8 -13 20 -10 26 4 7 2
8 -4 4 -9 -5 -9 -13 -2 -27 11 -20 6 -39 -10 -39 -5 0 -7 8 -4 18 5 16 5 16
-6 -1 -6 -9 -16 -14 -22 -11 -7 4 -8 2 -4 -5 4 -6 12 -9 17 -6 5 4 9 1 9 -5 0
-7 -8 -9 -19 -5 -11 3 -23 0 -27 -6 -4 -8 -3 -9 4 -5 7 4 12 2 12 -5 0 -7 -8
-9 -21 -6 -16 4 -19 3 -11 -5 7 -7 3 -17 -16 -34 -25 -21 -28 -22 -40 -6 -13
16 -13 15 -11 -3 4 -23 -7 -45 -22 -45 -6 0 -7 5 -4 10 4 6 1 9 -7 8 -7 -2
-12 4 -10 12 2 8 0 11 -4 7 -11 -10 -14 -38 -4 -32 4 3 11 -2 14 -11 5 -13 2
-15 -14 -11 -16 4 -19 2 -11 -6 7 -9 2 -19 -14 -33 -13 -12 -27 -19 -30 -16
-3 3 -5 -2 -5 -11 0 -9 -4 -19 -10 -22 -6 -4 -7 1 -3 12 4 12 3 15 -5 8 -5 -5
-12 -19 -14 -30 -2 -12 -11 -20 -23 -20 -11 0 -24 -3 -30 -6 -5 -4 -17 -5 -26
-4 -9 2 -16 -3 -16 -11 0 -10 4 -11 14 -3 7 6 13 8 13 4 0 -4 7 -2 15 5 27 22
27 3 1 -25 -15 -16 -26 -32 -26 -36 0 -5 -5 -9 -11 -9 -8 0 -8 4 0 14 9 11 9
16 0 22 -8 4 -9 3 -5 -5 4 -6 0 -14 -9 -17 -14 -6 -14 -8 2 -21 10 -8 12 -12
6 -8 -7 3 -13 1 -13 -4 0 -6 -5 -11 -11 -11 -5 0 -7 5 -4 10 3 6 4 10 1 10 -3
0 -12 -13 -21 -29 -11 -23 -12 -31 -2 -34 7 -3 4 -6 -6 -6 -10 -1 -16 -5 -13
-10 9 -13 -25 -23 -39 -11 -8 7 -12 5 -12 -5 0 -7 3 -14 6 -13 20 2 31 -3 26
-12 -4 -6 -11 -7 -17 -4 -7 5 -9 1 -5 -9 4 -10 -3 -23 -18 -35 -13 -11 -21
-23 -17 -26 4 -4 -1 -12 -11 -17 -9 -6 -15 -14 -12 -20 4 -5 -2 -6 -12 -2 -16
6 -16 5 -4 -10 12 -15 12 -17 -4 -10 -15 5 -17 3 -12 -11 5 -11 3 -15 -5 -10
-8 5 -9 2 -5 -10 5 -13 2 -15 -18 -12 -18 3 -22 1 -18 -11 4 -11 8 -11 13 -3
5 9 9 9 14 1 4 -6 0 -14 -8 -17 -9 -3 -14 -9 -12 -13 3 -4 1 -13 -4 -21 -7
-12 -11 -12 -27 0 -16 13 -16 12 1 -8 11 -12 14 -22 8 -22 -6 0 -14 5 -17 10
-3 6 -11 10 -17 10 -5 0 0 -9 13 -20 13 -10 19 -19 13 -20 -5 0 -15 5 -21 11
-9 9 -11 8 -9 -4 1 -9 6 -20 11 -24 4 -4 5 -2 0 6 -5 9 -4 12 3 7 12 -7 5 -36
-8 -36 -5 0 -10 5 -12 12 -3 7 -7 5 -11 -6 -4 -9 -3 -15 2 -11 5 3 12 1 16 -5
3 -5 1 -10 -4 -10 -6 0 -10 -3 -10 -7 1 -5 0 -11 -1 -15 -1 -5 -4 -12 -5 -18
-1 -5 -4 -12 -5 -15 -3 -7 -7 -23 -9 -37 -1 -7 -10 -2 -20 11 -14 18 -20 21
-26 11 -5 -9 -4 -11 3 -6 11 6 14 0 11 -20 0 -4 5 -11 13 -16 9 -7 7 -9 -8 -5
-13 3 -21 -1 -21 -10 0 -8 6 -12 14 -9 16 7 16 5 -2 -30 -8 -16 -15 -37 -15
-46 0 -27 -17 -21 -24 8 -4 15 -9 24 -13 21 -3 -3 2 -19 10 -35 8 -17 11 -36
7 -43 -5 -7 -7 -20 -5 -29 2 -13 -3 -16 -20 -14 -17 1 -22 -2 -18 -12 3 -8 9
-14 15 -14 5 0 6 5 2 12 -4 6 -3 8 4 5 12 -8 4 -47 -9 -47 -5 0 -9 5 -9 12 0
6 -3 8 -6 5 -4 -4 -3 -12 3 -19 12 -17 14 -58 3 -58 -5 0 -7 9 -5 19 3 15 -1
18 -12 14 -11 -4 -14 -2 -9 5 10 17 1 15 -14 -4 -8 -8 -9 -14 -4 -13 19 3 31
-1 32 -13 0 -7 3 -25 5 -40 2 -15 0 -25 -4 -22 -5 3 -9 -6 -9 -20 0 -13 -6
-27 -12 -29 -10 -4 -10 -6 0 -6 10 -1 10 -4 0 -15 -7 -8 -17 -11 -22 -8 -5 3
-6 0 -2 -6 3 -5 0 -12 -6 -15 -7 -3 -3 -4 9 -4 12 1 19 5 17 9 -3 4 0 8 6 8 8
0 9 -7 5 -17 -4 -10 -8 -28 -8 -40 -1 -13 -7 -23 -14 -23 -7 0 -13 -5 -13 -11
0 -5 4 -8 9 -5 5 3 9 -6 9 -19 0 -14 -6 -25 -12 -25 -7 0 -8 -3 -1 -8 6 -4 11
-18 10 -32 0 -16 6 -25 15 -25 8 0 20 -3 25 -7 6 -3 24 -4 40 -3 17 2 24 1 17
-2 -6 -3 -9 -10 -5 -16 12 -19 12 -36 2 -43 -6 -3 -5 -12 3 -22 7 -9 8 -13 2
-9 -15 9 -14 -44 1 -56 6 -5 3 -7 -7 -3 -10 3 -20 1 -23 -4 -4 -6 -1 -10 6
-10 7 0 9 -3 6 -6 -4 -4 -17 0 -30 9 -21 14 -24 13 -43 -8 -19 -21 -21 -30
-14 -60 5 -23 -1 -36 -12 -29 -10 6 -10 4 0 -8 13 -17 6 -52 -9 -42 -5 3 -9 0
-9 -5 0 -14 13 -14 27 0 7 7 10 -2 10 -33 0 -24 -5 -46 -11 -50 -7 -5 -5 -8 5
-8 10 0 15 -8 14 -22 -1 -13 2 -29 8 -36 5 -7 7 -15 3 -19 -3 -4 -13 2 -21 13
-14 18 -14 17 -4 -8 7 -15 15 -25 19 -23 4 3 11 -14 15 -38 4 -23 9 -50 11
-60 3 -12 0 -16 -8 -11 -9 6 -9 3 0 -9 8 -9 10 -22 6 -28 -4 -7 -3 -9 4 -5 6
3 14 1 18 -5 4 -8 3 -9 -4 -5 -7 4 -12 2 -12 -3 0 -6 5 -11 10 -11 6 0 10 -5
10 -11 0 -5 -4 -8 -8 -5 -4 2 -14 0 -22 -6 -13 -8 -12 -9 1 -5 23 7 44 -22 46
-63 1 -50 2 -52 13 -45 6 3 10 1 10 -4 0 -6 -4 -11 -10 -11 -5 0 -10 -5 -10
-11 0 -5 5 -7 10 -4 12 7 52 -79 52 -112 0 -13 4 -20 9 -18 4 3 10 1 13 -4 4
-5 2 -12 -3 -16 -14 -8 -2 -35 15 -35 8 0 14 -5 14 -11 0 -5 -5 -7 -11 -3 -7
4 -1 -8 12 -27 13 -19 27 -36 32 -37 13 -6 -3 -21 -18 -16 -8 3 -11 13 -8 22
4 9 3 14 -1 11 -4 -4 -8 -15 -10 -26 -4 -17 0 -20 25 -17 17 2 27 0 24 -5 -3
-5 2 -17 11 -25 8 -9 11 -16 6 -16 -6 0 -13 -8 -17 -17 -5 -15 -4 -16 6 -5 18
17 34 15 19 -3 -7 -9 -10 -18 -6 -22 3 -3 6 -1 6 5 0 20 18 14 25 -8 3 -11 13
-27 22 -35 12 -13 13 -18 2 -31 -11 -13 -10 -15 3 -12 9 1 17 0 18 -4 0 -4 14
-22 30 -40 17 -18 31 -38 31 -45 3 -27 4 -32 13 -40 5 -5 6 -3 2 5 -4 6 -2 12
3 12 6 0 11 -6 11 -14 0 -8 6 -16 13 -19 10 -3 10 -9 0 -26 -19 -30 -16 -37 5
-11 17 21 19 21 32 4 9 -11 10 -15 3 -10 -7 4 -13 2 -13 -3 0 -6 5 -11 10 -11
6 0 19 -9 30 -20 11 -11 17 -20 14 -20 -4 0 -1 -7 6 -15 7 -8 16 -12 21 -9 5
3 9 2 9 -3 0 -4 25 -34 56 -66 31 -32 54 -60 51 -63 -3 -3 -13 6 -22 20 -11
16 -22 23 -32 19 -12 -5 -14 -3 -8 7 5 9 4 11 -4 6 -15 -10 -3 -29 14 -22 8 3
17 -4 20 -15 6 -18 17 -24 39 -20 4 1 16 -7 26 -18 9 -12 21 -17 25 -13 5 4 5
1 1 -6 -5 -9 -12 -10 -20 -3 -8 7 -16 4 -25 -11 -10 -16 -10 -19 1 -12 7 5 25
9 41 10 27 2 32 -7 28 -46 -2 -13 -1 -13 8 0 5 8 7 18 4 24 -4 5 -1 6 6 2 7
-5 10 -14 7 -22 -3 -7 0 -11 7 -8 7 2 22 -3 32 -13 11 -10 37 -29 57 -43 21
-14 38 -28 38 -32 0 -5 9 -8 21 -8 21 0 21 0 -2 -20 -13 -10 -18 -19 -11 -20
6 0 12 5 12 10 0 6 9 10 20 10 23 0 24 -4 10 -30 -7 -13 -7 -21 2 -26 7 -4 8
-3 4 4 -4 7 -2 12 4 12 6 0 8 5 5 10 -3 5 -1 10 4 10 6 0 11 -4 11 -10 0 -5 9
-10 20 -10 11 0 20 -5 20 -11 0 -5 4 -8 9 -4 5 3 12 1 16 -5 4 -6 11 -8 16 -4
5 3 9 2 8 -3 -4 -24 4 -33 27 -33 21 0 24 -3 19 -22 -5 -20 -5 -21 5 -5 11 17
13 17 36 2 13 -8 24 -13 24 -9 0 3 16 -4 35 -16 19 -12 35 -19 35 -15 0 3 7
-1 16 -9 8 -9 20 -13 26 -10 7 5 8 2 4 -5 -5 -8 -3 -11 5 -9 8 1 34 -6 59 -16
25 -11 51 -20 58 -20 7 -1 16 -6 20 -13 4 -6 16 -11 27 -10 15 2 20 -4 20 -25
0 -14 3 -29 6 -33 4 -3 6 2 6 12 0 34 3 43 14 43 5 0 8 -4 4 -9 -3 -6 3 -9 12
-9 30 1 47 -6 61 -27 13 -20 13 -20 9 1 -4 21 -3 21 27 9 17 -7 34 -12 38 -12
3 1 10 -1 14 -5 4 -5 1 -8 -6 -8 -7 0 -11 -2 -8 -5 10 -10 38 7 31 19 -4 6 1
5 10 -3 19 -15 23 -26 5 -15 -7 4 -8 3 -4 -4 4 -6 13 -9 21 -6 8 4 12 11 8 18
-4 7 -1 7 9 -1 8 -7 19 -9 23 -5 5 4 5 2 2 -4 -4 -7 9 -11 41 -11 31 0 46 -4
45 -11 -2 -7 2 -12 7 -12 6 0 10 5 10 10 0 6 5 10 11 10 6 0 8 -8 5 -17 -5
-15 -4 -15 9 1 8 11 15 14 15 8 0 -7 5 -12 11 -12 5 0 7 6 3 13 -5 8 -2 7 10
-2 13 -11 20 -11 28 -3 9 9 17 7 32 -6 11 -9 17 -12 14 -7 -7 12 51 13 70 2 7
-5 12 -3 12 3 0 8 6 7 21 -1 16 -8 23 -8 29 1 5 8 10 9 14 2 4 -7 15 -8 29 -3
14 5 29 3 43 -6 27 -17 69 -11 68 10 -1 9 4 13 12 10 8 -3 11 -10 7 -17 -3 -6
3 -2 15 8 26 23 29 11 5 -17 -18 -19 -17 -19 5 -6 12 8 22 19 22 26 0 6 9 10
20 8 11 -2 20 1 20 6 0 6 5 7 11 3 8 -4 8 -9 0 -17 -14 -14 -14 -27 1 -27 6 0
8 3 5 7 -9 8 22 43 37 43 6 0 4 -5 -4 -10 -8 -5 -10 -10 -4 -10 6 0 17 7 24
15 9 11 17 12 33 4 16 -9 19 -9 14 3 -3 8 1 15 9 15 7 0 10 -5 7 -11 -3 -6 0
-5 8 2 17 16 30 15 23 -2 -3 -8 -1 -17 5 -21 7 -4 8 0 4 11 -5 14 -3 15 18 5
23 -11 23 -11 5 3 -27 22 -13 31 16 12 20 -13 25 -14 25 -2 0 8 -6 12 -14 9
-7 -3 -13 0 -13 5 0 6 9 9 20 7 11 -2 22 1 26 6 3 5 15 7 26 3 15 -4 18 -3 13
6 -5 8 -4 11 3 6 6 -3 13 -2 17 4 3 5 12 10 18 10 7 0 3 -7 -7 -15 -11 -8 -17
-17 -14 -20 3 -4 14 5 24 17 11 13 26 28 34 33 13 8 13 7 1 -8 -7 -9 -10 -17
-5 -17 4 0 -1 -7 -12 -16 -18 -14 -18 -15 4 -4 13 7 21 14 18 17 -7 7 17 32
27 26 4 -3 2 -12 -5 -21 -12 -16 -11 -16 7 0 11 9 23 17 28 17 11 1 13 9 3 18
-5 4 -7 3 -3 -3 3 -6 0 -11 -8 -11 -15 0 -22 16 -7 18 4 0 18 2 31 5 18 3 22
1 17 -11 -3 -9 -2 -13 4 -10 6 3 10 16 10 28 1 21 1 21 15 3 8 -10 12 -22 10
-27 -3 -4 -1 -10 4 -14 10 -6 8 17 -5 49 -5 14 -4 17 5 12 6 -4 19 -2 27 5 13
10 17 10 24 -1 5 -8 7 -17 4 -21 -2 -4 4 -13 14 -20 15 -13 16 -12 3 4 -7 9
-10 17 -7 17 4 0 2 8 -3 19 -14 25 -1 35 15 13 12 -16 13 -15 9 5 -2 14 1 20
8 17 7 -2 24 7 40 21 15 15 31 23 37 20 5 -3 14 3 19 12 10 17 12 17 27 -2 16
-20 16 -20 11 2 -6 25 3 28 36 12 20 -9 20 -9 5 4 -18 15 -25 33 -9 23 5 -3
11 1 15 9 3 9 12 12 22 8 13 -5 15 -3 9 8 -6 11 -5 12 6 2 7 -7 18 -13 23 -13
6 0 4 4 -4 10 -8 5 -11 12 -7 16 3 4 15 1 24 -7 16 -12 17 -12 6 2 -10 12 -8
18 8 33 25 21 37 15 14 -7 -14 -14 -13 -16 4 -14 10 0 17 6 14 13 -2 7 1 15 6
19 6 3 9 10 7 14 -3 4 5 13 17 21 20 12 21 12 9 -3 -10 -12 -10 -17 -1 -23 8
-4 9 -3 5 4 -4 7 -2 12 3 12 6 0 11 10 11 22 0 21 0 21 15 2 13 -18 14 -18 8
4 -4 18 -2 21 12 15 13 -4 16 -3 11 5 -4 7 -1 15 8 18 9 3 13 11 9 17 -3 6 4
3 18 -6 13 -9 28 -17 34 -17 5 1 0 6 -13 13 l-22 13 35 34 c33 32 44 36 107
43 15 2 30 6 33 9 9 9 -60 2 -76 -7 -12 -8 -12 -6 0 8 7 9 21 17 30 17 14 0
14 2 1 10 -8 5 -10 10 -3 10 6 0 31 21 56 46 39 39 48 44 66 35 14 -8 22 -8
27 1 4 6 3 8 -2 5 -6 -3 -16 -1 -24 4 -13 8 -12 12 4 24 11 8 17 15 13 15 -3
0 5 12 19 28 14 15 43 47 64 71 35 41 40 44 57 31 17 -14 17 -14 0 6 -16 19
-16 22 -2 28 9 3 13 10 10 16 -3 5 -1 10 5 10 6 0 8 5 4 12 -4 6 -3 9 2 5 5
-3 18 12 28 34 10 21 23 36 27 33 8 -5 13 10 10 29 -1 4 10 12 24 17 14 5 25
15 25 22 0 9 -3 8 -10 -2 -5 -8 -10 -11 -10 -7 0 12 33 61 47 70 7 4 10 14 7
21 -3 7 1 20 8 27 8 8 24 36 37 62 17 35 27 45 34 38 14 -14 27 -14 27 0 0 5
-4 7 -10 4 -10 -6 -15 9 -10 30 1 6 3 15 4 22 1 7 6 16 11 20 4 4 5 2 0 -6 -6
-10 -4 -12 4 -7 7 5 10 15 7 23 -3 8 1 24 9 36 8 12 14 25 15 29 3 25 24 68
32 68 7 0 6 -5 -1 -14 -9 -11 -9 -16 1 -22 7 -4 10 -4 6 1 -4 4 -3 14 3 21 7
8 7 14 -1 19 -16 10 -12 35 5 29 8 -4 13 -10 10 -14 -3 -5 0 -12 6 -16 8 -4 9
-3 5 4 -4 7 -2 12 5 12 6 0 1 9 -12 20 -23 18 -23 19 -4 20 13 0 16 3 8 8 -12
8 -12 24 1 54 4 9 8 22 10 30 1 7 5 19 10 26 4 7 5 16 2 19 -3 4 3 12 14 20
11 8 20 19 20 24 0 6 -7 3 -16 -5 -19 -20 -31 -21 -15 -2 7 8 14 24 16 36 2
12 12 29 22 36 15 12 16 13 1 8 -13 -4 -16 0 -12 23 8 51 12 78 13 92 1 11 4
11 16 1 20 -17 19 -6 -1 15 -21 20 -10 32 12 14 16 -13 16 -12 4 8 -8 12 -19
19 -25 16 -5 -3 -4 0 3 8 6 7 12 17 12 22 0 4 -6 5 -12 1 -7 -4 -4 3 7 16 11
13 15 20 8 17 -6 -4 -14 -3 -18 3 -3 5 -1 10 5 10 6 0 10 8 8 18 -2 11 2 16
12 14 8 -2 11 0 7 4 -4 4 -22 9 -40 9 -53 3 -58 5 -52 15 5 8 11 8 20 0 10 -8
15 -8 20 0 4 6 4 14 1 17 -3 4 -6 0 -6 -7 0 -9 -7 -7 -22 6 -12 10 -18 13 -14
7 5 -9 0 -13 -13 -13 -12 0 -21 -5 -21 -12 0 -6 -3 -9 -6 -6 -3 4 -1 15 5 26
7 13 7 23 -2 32 -9 10 -9 11 1 6 15 -9 15 -1 2 24 -7 13 -7 21 0 25 8 5 7 11
-1 21 -10 12 -9 17 0 27 10 9 11 8 5 -8 -7 -18 -6 -18 9 -6 9 7 14 18 11 23
-4 6 4 5 16 -2 18 -10 24 -9 31 1 5 8 9 10 9 4 0 -5 5 -2 11 8 5 9 7 22 4 27
-3 6 0 10 7 10 11 0 11 2 0 9 -7 4 -12 12 -11 17 1 5 0 11 -1 14 -9 22 -6 72
4 76 6 2 12 15 13 27 l1 22 -10 -22 c-6 -13 -15 -23 -20 -23 -14 0 -9 19 12
40 22 22 19 25 -10 10 -15 -8 -18 -6 -15 8 1 9 0 22 -4 27 -11 19 -9 35 5 35
8 0 14 4 14 10 0 5 -8 6 -17 3 -12 -5 -15 -2 -10 10 4 11 1 17 -9 17 -14 0
-14 2 0 16 19 19 21 31 3 15 -10 -8 -14 -7 -15 2 -2 23 -8 42 -20 65 -12 20
-11 22 10 23 13 0 17 3 10 6 -6 2 -9 10 -5 16 4 7 -2 5 -12 -3 -16 -13 -18
-13 -13 0 2 8 -1 21 -9 28 -7 8 -11 18 -8 23 4 5 1 9 -6 9 -7 0 -10 11 -7 29
3 22 1 28 -11 23 -9 -4 -12 -1 -7 7 5 7 0 18 -10 26 -23 17 -11 19 19 4 l22
-12 -20 20 c-11 11 -23 19 -27 16 -5 -2 -8 5 -8 17 0 12 -4 19 -8 16 -5 -3 -9
1 -9 9 0 8 3 12 7 10 3 -2 7 5 7 16 1 10 -3 19 -8 19 -6 0 -7 -4 -4 -10 3 -5
-1 -10 -9 -10 -19 0 -20 9 -2 32 7 10 17 14 21 10 5 -4 5 -1 0 7 -7 12 -10 12
-20 -2 -15 -21 -40 -5 -32 22 3 12 0 24 -5 28 -7 4 -8 1 -3 -7 5 -9 4 -11 -3
-6 -7 4 -12 16 -12 27 0 11 -4 18 -9 15 -11 -7 -27 25 -30 60 0 8 -5 12 -11 9
-10 -6 -14 7 -11 34 2 7 -2 10 -7 7 -6 -3 -24 15 -41 41 -31 46 -43 85 -16 49
8 -11 15 -15 15 -10 0 6 -3 14 -7 18 -5 4 -8 13 -8 19 0 7 -9 13 -20 14 -19 3
-19 3 -1 -5 16 -7 17 -10 6 -17 -9 -6 -15 -4 -18 5 -3 8 -15 24 -28 37 -27 27
-20 31 10 6 16 -14 18 -14 8 -2 -6 9 -8 19 -4 23 4 4 3 7 -3 6 -24 -5 -46 1
-40 11 4 6 13 8 19 6 13 -5 15 28 3 38 -4 3 -5 2 -2 -2 6 -7 -14 -33 -25 -33
-4 0 -15 11 -24 25 -12 19 -14 30 -6 44 7 14 7 22 -2 27 -6 4 -8 3 -5 -2 3 -6
2 -16 -3 -24 -8 -13 -12 -12 -27 3 -17 17 -17 18 2 12 11 -3 7 1 -9 8 -20 10
-25 16 -15 20 12 5 12 6 0 6 -19 1 -71 51 -71 68 0 7 -6 13 -14 13 -8 0 -17 7
-20 16 -8 22 -8 26 3 20 5 -4 7 4 3 16 -5 21 -5 21 -15 -3 -9 -22 -10 -23 -14
-4 -3 11 -10 25 -15 30 -8 7 -9 6 -4 -2 13 -23 -10 -14 -36 15 -14 15 -35 34
-47 42 -11 8 -21 19 -21 24 0 5 11 -1 25 -14 32 -30 32 -21 1 13 -15 16 -26
22 -29 14 -3 -11 -61 29 -121 86 -16 15 -35 27 -42 27 -8 0 -14 3 -14 8 0 4
-13 13 -30 20 -16 8 -30 18 -30 24 0 7 7 5 18 -3 29 -24 62 -40 62 -30 0 5
-13 14 -30 19 -22 8 -28 15 -24 29 3 10 2 14 -3 8 -10 -12 -64 -15 -57 -3 3 4
0 8 -6 8 -6 0 -8 5 -4 11 4 7 0 9 -14 5 -24 -8 -39 11 -22 27 10 9 12 8 7 -5
-8 -23 0 -23 12 0 8 15 6 18 -14 18 -13 0 -21 -4 -19 -8 9 -15 -33 -8 -46 7
-7 8 -17 12 -24 8 -6 -4 -5 1 3 11 11 13 16 14 22 4 6 -9 9 -9 9 -1 0 6 -5 15
-10 18 -6 4 -7 12 -4 18 4 7 3 8 -2 4 -5 -5 -9 -14 -9 -20 0 -7 -10 -13 -22
-15 -27 -4 -30 13 -5 27 15 9 15 10 1 11 -9 0 -20 -7 -23 -15 -5 -13 -10 -14
-28 -4 -13 7 -29 19 -36 28 -8 9 -11 10 -7 3 5 -10 1 -10 -19 0 -14 6 -26 15
-26 20 0 4 -9 8 -21 8 -13 0 -18 4 -13 13 5 8 2 8 -9 -2 -10 -8 -17 -9 -17 -3
0 6 5 14 10 17 6 3 10 11 10 17 0 5 -8 0 -18 -13 -15 -17 -21 -19 -27 -9 -6 9
-4 11 5 5 9 -5 11 -4 6 4 -6 9 -11 9 -23 0 -12 -11 -13 -8 -8 17 5 25 4 26 -4
7 -11 -24 -31 -31 -31 -12 0 5 4 8 8 5 4 -2 8 5 9 17 0 12 -1 16 -4 9 -3 -7
-14 -17 -25 -23 -18 -10 -20 -9 -14 7 6 15 5 16 -5 7 -8 -8 -18 -9 -31 -2 -10
5 -23 7 -28 4 -6 -3 -10 -2 -10 3 0 5 -7 9 -15 10 -8 1 -22 3 -30 4 -8 1 -15
5 -15 10 0 5 -4 7 -9 3 -5 -3 -12 -1 -16 5 -3 5 1 10 9 10 19 0 21 16 4 26 -7
4 -10 4 -6 -1 12 -13 -35 -44 -53 -34 -9 4 -19 5 -23 2 -3 -3 -6 -1 -6 5 0 7
-13 12 -30 12 -16 0 -30 4 -30 9 0 13 -31 23 -44 13 -18 -12 -101 -6 -98 8 1
7 -2 8 -10 3 -7 -4 -30 -8 -51 -9 -33 0 -37 2 -32 20 3 12 2 15 -1 9 -3 -7
-12 -13 -20 -13 -9 0 -12 5 -9 10 3 6 1 10 -5 10 -7 0 -10 -6 -7 -14 3 -8 -1
-17 -9 -20 -9 -3 -12 -1 -9 4 8 13 3 13 -30 0 -17 -7 -24 -7 -20 0 3 6 1 10
-5 10 -6 0 -8 5 -4 12 4 7 3 8 -5 4 -6 -4 -9 -11 -6 -16 8 -12 -26 -22 -40
-10 -8 6 -15 6 -23 -2 -9 -9 -12 -9 -12 0 0 6 8 16 18 21 10 6 12 11 4 11 -7
0 -10 5 -7 10 3 6 4 10 1 10 -3 0 -8 -4 -11 -10z m420 -60 c3 -5 2 -10 -4 -10
-5 0 -13 5 -16 10 -3 6 -2 10 4 10 5 0 13 -4 16 -10z m-705 -15 c0 -12 -19
-12 -23 0 -4 9 -1 12 9 8 7 -3 14 -7 14 -8z m-1280 -779 c0 -3 -4 -8 -10 -11
-5 -3 -10 -1 -10 4 0 6 5 11 10 11 6 0 10 -2 10 -4z m1824 -3497 c3 -2 -6 -6
-19 -7 -13 -1 -26 2 -29 7 -6 8 39 9 48 0z"/>
<path d="M5590 7815 c0 -5 5 -17 10 -25 5 -8 10 -10 10 -5 0 6 -5 17 -10 25
-5 8 -10 11 -10 5z"/>
<path d="M5799 7808 c-5 -16 -4 -46 2 -42 4 2 7 13 6 24 -1 17 -5 26 -8 18z"/>
<path d="M5310 7795 c0 -5 5 -17 10 -25 5 -8 10 -10 10 -5 0 6 -5 17 -10 25
-5 8 -10 11 -10 5z"/>
<path d="M5365 7790 c-3 -5 -1 -10 4 -10 6 0 11 5 11 10 0 6 -2 10 -4 10 -3 0
-8 -4 -11 -10z"/>
<path d="M5454 7784 c-18 -14 -18 -15 4 -4 12 6 22 13 22 15 0 8 -5 6 -26 -11z"/>
<path d="M5530 7785 c0 -8 4 -15 10 -15 5 0 7 7 4 15 -4 8 -8 15 -10 15 -2 0
-4 -7 -4 -15z"/>
<path d="M5711 7784 c0 -11 3 -14 6 -6 3 7 2 16 -1 19 -3 4 -6 -2 -5 -13z"/>
<path d="M5733 7785 c0 -8 4 -15 9 -15 4 0 8 4 8 9 0 6 -4 12 -8 15 -5 3 -9
-1 -9 -9z"/>
<path d="M5875 7790 c6 -9 -8 -14 -28 -11 -5 1 -6 -3 -2 -9 4 -7 12 -7 26 0
17 9 19 30 3 30 -3 0 -2 -4 1 -10z"/>
<path d="M5290 7771 c0 -5 5 -13 10 -16 6 -3 10 -2 10 4 0 5 -4 13 -10 16 -5
3 -10 2 -10 -4z"/>
<path d="M5930 7777 c0 -2 6 -10 14 -16 11 -9 16 -9 22 1 4 7 4 10 -1 6 -4 -4
-14 -3 -22 3 -7 6 -13 9 -13 6z"/>
<path d="M5982 7762 c2 -8 7 -13 12 -12 5 1 13 -4 18 -12 8 -11 9 -11 6 0 -2
8 -7 13 -12 12 -5 -1 -13 4 -18 12 -8 11 -9 11 -6 0z"/>
<path d="M6036 7745 c-9 -26 -7 -32 5 -12 6 10 9 21 6 23 -2 3 -7 -2 -11 -11z"/>
<path d="M6111 7744 c7 -8 6 -14 -1 -17 -6 -3 -6 -5 1 -3 17 3 20 33 3 33 -10
0 -11 -4 -3 -13z"/>
<path d="M5095 7740 c-3 -6 1 -7 9 -4 18 7 21 14 7 14 -6 0 -13 -4 -16 -10z"/>
<path d="M4896 7717 c3 -10 9 -15 12 -12 3 3 0 11 -7 18 -10 9 -11 8 -5 -6z"/>
<path d="M5066 7722 c-3 -5 1 -9 9 -9 8 0 12 4 9 9 -3 4 -7 8 -9 8 -2 0 -6 -4
-9 -8z"/>
<path d="M4936 7712 c-3 -5 1 -9 9 -9 8 0 12 4 9 9 -3 4 -7 8 -9 8 -2 0 -6 -4
-9 -8z"/>
<path d="M6130 7711 c0 -9 38 -12 44 -3 2 4 -7 8 -20 8 -13 1 -24 -1 -24 -5z"/>
<path d="M6210 7710 c0 -5 5 -10 11 -10 5 0 7 5 4 10 -3 6 -8 10 -11 10 -2 0
-4 -4 -4 -10z"/>
<path d="M6180 7696 c0 -2 7 -7 16 -10 8 -3 12 -2 9 4 -6 10 -25 14 -25 6z"/>
<path d="M4901 7682 c-1 -8 -6 -10 -13 -6 -10 5 -10 4 -1 -6 15 -16 28 -8 20
12 -4 11 -6 11 -6 0z"/>
<path d="M4830 7670 c-13 -8 -12 -10 3 -10 9 0 17 5 17 10 0 12 -1 12 -20 0z"/>
<path d="M6415 7640 c-4 -6 -11 -7 -17 -4 -6 4 -5 -2 2 -15 9 -18 30 -21 30
-5 0 3 -4 2 -10 -1 -14 -9 -13 8 2 23 7 7 9 12 6 12 -4 0 -10 -5 -13 -10z"/>
<path d="M4753 7625 c0 -13 34 -17 42 -4 4 5 -2 6 -11 2 -10 -4 -15 -2 -11 4
3 5 0 10 -7 10 -7 0 -13 -5 -13 -12z"/>
<path d="M4721 7597 c-13 -21 -12 -21 5 -5 10 10 16 20 13 22 -3 3 -11 -5 -18
-17z"/>
<path d="M6472 7615 c4 -4 3 -14 -3 -21 -7 -8 -7 -14 1 -19 5 -3 10 -5 11 -3
6 27 5 39 -4 45 -7 3 -9 3 -5 -2z"/>
<path d="M4635 7580 c-3 -6 1 -7 9 -4 18 7 21 14 7 14 -6 0 -13 -4 -16 -10z"/>
<path d="M4576 7568 c3 -5 10 -6 15 -3 13 9 11 12 -6 12 -8 0 -12 -4 -9 -9z"/>
<path d="M6599 7555 c-1 -3 -2 -8 -3 -12 -1 -5 -5 -15 -10 -23 -7 -12 -6 -13
4 -3 13 12 23 43 14 43 -2 0 -5 -2 -5 -5z"/>
<path d="M4536 7532 c-3 -5 1 -9 9 -9 8 0 12 4 9 9 -3 4 -7 8 -9 8 -2 0 -6 -4
-9 -8z"/>
<path d="M4530 7500 c0 -5 5 -10 11 -10 5 0 7 5 4 10 -3 6 -8 10 -11 10 -2 0
-4 -4 -4 -10z"/>
<path d="M4479 7483 c-13 -16 -12 -17 4 -4 9 7 17 15 17 17 0 8 -8 3 -21 -13z"/>
<path d="M4506 7483 c-6 -14 -5 -15 5 -6 7 7 10 15 7 18 -3 3 -9 -2 -12 -12z"/>
<path d="M6686 7468 c3 -4 9 -8 15 -8 5 0 9 4 9 8 0 5 -7 9 -15 9 -8 0 -12 -4
-9 -9z"/>
<path d="M4450 7446 c7 -7 14 -6 21 1 9 9 7 12 -9 10 -14 -1 -18 -5 -12 -11z"/>
<path d="M6756 7452 c-3 -4 4 -9 15 -9 23 -2 25 3 4 10 -8 4 -16 3 -19 -1z"/>
<path d="M4365 7409 c-4 -6 -4 -13 -1 -16 3 -4 6 -1 6 6 0 7 5 9 12 5 7 -4 8
-3 4 4 -9 15 -13 15 -21 1z"/>
<path d="M6833 7385 c0 -8 4 -12 9 -9 5 3 6 10 3 15 -9 13 -12 11 -12 -6z"/>
<path d="M4259 7343 c-13 -16 -12 -17 4 -4 9 7 17 15 17 17 0 8 -8 3 -21 -13z"/>
<path d="M6862 7335 c12 -14 23 -25 25 -25 2 0 -4 11 -13 25 -9 14 -20 25 -25
25 -5 0 1 -11 13 -25z"/>
<path d="M6895 7341 c-3 -5 -2 -12 3 -15 5 -3 9 1 9 9 0 17 -3 19 -12 6z"/>
<path d="M4214 7299 c-1 -24 2 -35 7 -28 4 7 5 17 2 23 -4 5 2 7 13 3 17 -6
17 -6 3 5 -9 7 -16 17 -17 21 -2 26 -7 10 -8 -24z"/>
<path d="M6915 7293 c12 -14 17 -15 27 -4 11 11 10 13 -3 8 -9 -3 -22 -1 -28
4 -6 5 -4 1 4 -8z"/>
<path d="M7016 7225 c-3 -9 1 -18 9 -21 8 -4 12 -11 9 -18 -3 -6 1 -3 9 6 8
10 18 14 22 10 5 -4 5 -2 2 5 -4 6 -16 9 -27 6 -16 -4 -19 -2 -14 11 3 9 4 16
1 16 -3 0 -8 -7 -11 -15z"/>
<path d="M4095 7211 c-3 -5 -1 -13 5 -16 8 -5 7 -12 -2 -22 -12 -15 -11 -15 9
-2 19 11 20 15 8 22 -9 4 -13 12 -10 18 4 5 4 9 1 9 -3 0 -7 -4 -11 -9z"/>
<path d="M4033 7139 c-2 -23 3 -25 10 -4 4 8 3 16 -1 19 -4 3 -9 -4 -9 -15z"/>
<path d="M3990 7146 c0 -2 8 -10 18 -17 15 -13 16 -12 3 4 -13 16 -21 21 -21
13z"/>
<path d="M7134 7119 c3 -17 33 -20 33 -3 0 10 -4 11 -13 3 -8 -7 -14 -6 -17 1
-3 6 -5 6 -3 -1z"/>
<path d="M7145 7081 c-3 -5 -2 -12 3 -15 5 -3 9 1 9 9 0 17 -3 19 -12 6z"/>
<path d="M7170 7051 c0 -5 5 -13 10 -16 6 -3 10 -2 10 4 0 5 -4 13 -10 16 -5
3 -10 2 -10 -4z"/>
<path d="M7216 7029 c4 -8 30 -6 38 2 3 3 -5 5 -19 5 -13 0 -22 -3 -19 -7z"/>
<path d="M3896 7012 c-3 -5 1 -9 9 -9 8 0 12 4 9 9 -3 4 -7 8 -9 8 -2 0 -6 -4
-9 -8z"/>
<path d="M3855 6949 c-3 -4 2 -6 10 -5 21 3 28 13 10 13 -9 0 -18 -4 -20 -8z"/>
<path d="M7270 6949 c0 -5 5 -7 10 -4 6 3 10 8 10 11 0 2 -4 4 -10 4 -5 0 -10
-5 -10 -11z"/>
<path d="M7286 6923 c-6 -14 -5 -15 5 -6 7 7 10 15 7 18 -3 3 -9 -2 -12 -12z"/>
<path d="M3855 6921 c-3 -5 -2 -12 3 -15 5 -3 9 1 9 9 0 17 -3 19 -12 6z"/>
<path d="M7350 6868 c0 -4 4 -8 9 -8 6 0 12 4 15 8 3 5 -1 9 -9 9 -8 0 -15 -4
-15 -9z"/>
<path d="M3797 6841 c4 -3 10 -10 14 -14 3 -4 11 -2 17 5 8 10 5 13 -15 14
-13 1 -21 -1 -16 -5z"/>
<path d="M7415 6811 c-3 -5 -2 -12 3 -15 5 -3 9 1 9 9 0 17 -3 19 -12 6z"/>
<path d="M3706 6772 c-3 -5 1 -9 9 -9 8 0 12 4 9 9 -3 4 -7 8 -9 8 -2 0 -6 -4
-9 -8z"/>
<path d="M7415 6770 c3 -5 8 -10 11 -10 2 0 4 5 4 10 0 6 -5 10 -11 10 -5 0
-7 -4 -4 -10z"/>
<path d="M7401 6754 c-1 -6 9 -19 21 -30 14 -12 18 -13 10 -3 -6 9 -8 20 -4
24 4 5 2 5 -5 2 -6 -4 -14 -1 -16 5 -3 8 -6 8 -6 2z"/>
<path d="M7455 6710 c3 -5 8 -10 11 -10 2 0 4 5 4 10 0 6 -5 10 -11 10 -5 0
-7 -4 -4 -10z"/>
<path d="M7495 6690 c-3 -5 -1 -10 4 -10 6 0 11 5 11 10 0 6 -2 10 -4 10 -3 0
-8 -4 -11 -10z"/>
<path d="M3678 6663 c7 -3 16 -2 19 1 4 3 -2 6 -13 5 -11 0 -14 -3 -6 -6z"/>
<path d="M7485 6610 c3 -5 11 -10 16 -10 6 0 7 5 4 10 -3 6 -11 10 -16 10 -6
0 -7 -4 -4 -10z"/>
<path d="M7541 6586 c-9 -11 -9 -16 1 -22 7 -4 10 -4 6 1 -4 4 -3 14 3 22 6 7
9 13 6 13 -2 0 -10 -6 -16 -14z"/>
<path d="M7550 6530 c-6 -11 -8 -20 -6 -20 3 0 10 9 16 20 6 11 8 20 6 20 -3
0 -10 -9 -16 -20z"/>
<path d="M3596 6511 c9 -9 34 -9 34 -1 0 5 -9 8 -20 7 -10 -1 -17 -3 -14 -6z"/>
<path d="M3614 6482 c3 -5 0 -13 -6 -15 -9 -4 -10 -6 -1 -6 17 -1 25 16 12 25
-7 4 -9 3 -5 -4z"/>
<path d="M7610 6420 c6 -11 12 -20 14 -20 2 0 2 9 -1 20 -3 11 -9 20 -15 20
-5 0 -4 -9 2 -20z"/>
<path d="M3565 6362 c-10 -7 -18 -32 -10 -32 2 0 9 9 15 20 12 22 11 24 -5 12z"/>
<path d="M7641 6304 c0 -11 3 -14 6 -6 3 7 2 16 -1 19 -3 4 -6 -2 -5 -13z"/>
<path d="M3515 6272 c3 -3 -1 -12 -8 -21 -10 -14 -10 -14 4 -4 9 7 18 11 21 8
2 -3 5 1 5 8 0 8 -6 14 -14 14 -7 0 -11 -3 -8 -5z"/>
<path d="M7655 6271 c-6 -11 13 -26 22 -17 4 3 1 6 -6 6 -7 0 -9 5 -6 10 3 6
4 10 1 10 -3 0 -7 -4 -11 -9z"/>
<path d="M7690 6250 c0 -5 5 -10 11 -10 5 0 7 5 4 10 -3 6 -8 10 -11 10 -2 0
-4 -4 -4 -10z"/>
<path d="M7688 6175 c5 -11 11 -24 12 -30 1 -5 3 -12 6 -14 2 -2 1 7 -1 19 -3
13 -10 28 -16 34 -9 8 -9 6 -1 -9z"/>
<path d="M3455 6089 c-4 -5 -1 -8 7 -7 8 2 12 -6 10 -22 -2 -19 0 -22 8 -10 5
8 10 20 10 26 0 16 -28 26 -35 13z"/>
<path d="M3455 6020 c-3 -6 1 -7 9 -4 18 7 21 14 7 14 -6 0 -13 -4 -16 -10z"/>
<path d="M7732 6023 c-6 -2 -10 -9 -6 -14 8 -14 21 -11 21 6 0 8 -1 15 -1 14
-1 0 -7 -3 -14 -6z"/>
<path d="M3447 5916 c-12 -9 -14 -16 -8 -21 6 -3 11 -1 11 5 0 6 4 9 8 6 5 -3
9 1 9 9 0 8 -1 15 -1 15 -1 0 -9 -7 -19 -14z"/>
<path d="M7753 5885 c0 -8 4 -12 9 -9 4 3 8 9 8 15 0 5 -4 9 -8 9 -5 0 -9 -7
-9 -15z"/>
<path d="M7755 5850 c3 -5 8 -10 11 -10 2 0 4 5 4 10 0 6 -5 10 -11 10 -5 0
-7 -4 -4 -10z"/>
<path d="M3440 5841 c0 -7 -5 -9 -12 -5 -7 5 -8 3 -3 -5 5 -9 10 -10 18 -2 6
6 8 14 4 18 -4 3 -7 1 -7 -6z"/>
<path d="M7776 5832 c-2 -4 -1 -14 4 -22 7 -11 9 -9 7 8 -1 24 -3 26 -11 14z"/>
<path d="M3430 5791 c0 -6 4 -13 10 -16 6 -3 7 1 4 9 -7 18 -14 21 -14 7z"/>
<path d="M3524 5731 c4 -7 2 -20 -6 -29 -12 -15 -11 -16 4 -4 11 9 18 10 23 2
3 -5 2 -10 -2 -10 -5 0 -18 -7 -29 -15 -17 -14 -16 -15 13 -1 34 17 38 42 8
58 -13 8 -16 7 -11 -1z"/>
<path d="M7680 5723 c-13 -15 -12 -16 4 -10 12 5 16 3 14 -5 -3 -7 -10 -13
-15 -13 -21 0 -24 -12 -6 -26 9 -8 14 -9 10 -2 -4 6 -2 13 4 15 12 4 22 58 11
58 -4 -1 -14 -8 -22 -17z"/>
<path d="M3496 5713 c-6 -14 -5 -15 5 -6 7 7 10 15 7 18 -3 3 -9 -2 -12 -12z"/>
<path d="M7750 5671 c0 -6 4 -13 10 -16 6 -3 7 1 4 9 -7 18 -14 21 -14 7z"/>
<path d="M3524 5642 c0 -10 6 -19 13 -19 8 0 9 6 2 19 -5 10 -11 18 -12 18 -2
0 -3 -8 -3 -18z"/>
<path d="M7686 5645 c-11 -8 -16 -15 -10 -15 5 0 18 7 28 15 11 8 16 15 10 15
-5 0 -18 -7 -28 -15z"/>
<path d="M3501 5634 c-1 -26 24 -51 34 -34 4 6 1 9 -6 8 -7 -2 -16 8 -20 22
-6 22 -7 23 -8 4z"/>
<path d="M3415 5490 c3 -5 8 -10 11 -10 2 0 4 5 4 10 0 6 -5 10 -11 10 -5 0
-7 -4 -4 -10z"/>
<path d="M7780 5496 c0 -2 8 -10 18 -17 15 -13 16 -12 3 4 -13 16 -21 21 -21
13z"/>
<path d="M3446 5395 c-3 -8 -1 -15 4 -15 6 0 10 7 10 15 0 8 -2 15 -4 15 -2 0
-6 -7 -10 -15z"/>
<path d="M3416 5372 c-3 -4 4 -9 15 -9 23 -2 25 3 4 10 -8 4 -16 3 -19 -1z"/>
<path d="M7750 5376 c0 -2 7 -7 16 -10 8 -3 12 -2 9 4 -6 10 -25 14 -25 6z"/>
<path d="M7753 5347 c0 -20 24 -30 33 -14 4 7 4 9 -1 5 -4 -4 -13 0 -20 8 -11
15 -12 15 -12 1z"/>
<path d="M3415 5330 c3 -5 8 -10 11 -10 2 0 4 5 4 10 0 6 -5 10 -11 10 -5 0
-7 -4 -4 -10z"/>
<path d="M7735 5250 c-3 -5 -1 -10 4 -10 6 0 11 5 11 10 0 6 -2 10 -4 10 -3 0
-8 -4 -11 -10z"/>
<path d="M3453 5225 c0 -7 6 -11 14 -8 7 3 13 6 13 8 0 2 -6 5 -13 8 -8 3 -14
-1 -14 -8z"/>
<path d="M3460 5196 c0 -2 7 -6 15 -10 8 -3 15 -1 15 4 0 6 -7 10 -15 10 -8 0
-15 -2 -15 -4z"/>
<path d="M7725 5170 c-3 -6 1 -7 9 -4 18 7 21 14 7 14 -6 0 -13 -4 -16 -10z"/>
<path d="M3485 5160 c-4 -6 -11 -8 -16 -5 -5 4 -9 1 -9 -4 0 -16 16 -13 30 4
7 8 10 15 7 15 -3 0 -9 -5 -12 -10z"/>
<path d="M7736 5143 c-6 -14 -5 -15 5 -6 7 7 10 15 7 18 -3 3 -9 -2 -12 -12z"/>
<path d="M3465 5110 c-3 -6 1 -7 9 -4 18 7 21 14 7 14 -6 0 -13 -4 -16 -10z"/>
<path d="M7709 5118 c-8 -26 -5 -36 8 -31 11 4 12 8 3 13 -9 6 -9 9 1 13 10 4
10 6 2 6 -7 1 -13 0 -14 -1z"/>
<path d="M7683 5065 c0 -7 6 -11 14 -8 7 3 13 6 13 8 0 2 -6 5 -13 8 -8 3 -14
-1 -14 -8z"/>
<path d="M3510 5020 c0 -5 5 -10 11 -10 5 0 7 5 4 10 -3 6 -8 10 -11 10 -2 0
-4 -4 -4 -10z"/>
<path d="M3500 4996 c0 -2 8 -10 18 -17 15 -13 16 -12 3 4 -13 16 -21 21 -21
13z"/>
<path d="M7670 4929 c0 -5 5 -7 10 -4 6 3 10 8 10 11 0 2 -4 4 -10 4 -5 0 -10
-5 -10 -11z"/>
<path d="M7626 4912 c-2 -4 4 -13 14 -20 13 -7 21 -8 25 -2 4 6 1 9 -7 8 -7
-2 -12 3 -10 10 2 13 -14 17 -22 4z"/>
<path d="M3553 4875 c0 -8 3 -13 5 -10 3 3 11 -3 19 -13 11 -15 12 -13 2 11
-13 30 -26 36 -26 12z"/>
<path d="M7628 4863 c6 -2 9 -10 6 -15 -4 -7 -2 -8 5 -4 13 9 5 26 -12 25 -9
0 -8 -2 1 -6z"/>
<path d="M7607 4840 c3 -11 9 -22 13 -25 5 -3 6 4 3 15 -3 11 -9 22 -13 25 -5
3 -6 -4 -3 -15z"/>
<path d="M3570 4815 c-11 -13 -10 -14 4 -9 9 3 16 10 16 15 0 13 -6 11 -20 -6z"/>
<path d="M3585 4789 c-11 -16 -1 -19 13 -3 7 8 8 14 3 14 -5 0 -13 -5 -16 -11z"/>
<path d="M7590 4788 c0 -4 4 -8 9 -8 6 0 12 4 15 8 3 5 -1 9 -9 9 -8 0 -15 -4
-15 -9z"/>
<path d="M7553 4733 c4 -6 2 -13 -5 -15 -8 -3 -6 -6 4 -10 17 -7 19 15 3 29
-4 4 -5 3 -2 -4z"/>
<path d="M3610 4710 c0 -5 5 -10 11 -10 5 0 7 5 4 10 -3 6 -8 10 -11 10 -2 0
-4 -4 -4 -10z"/>
<path d="M7525 4690 c-3 -6 1 -7 9 -4 18 7 21 14 7 14 -6 0 -13 -4 -16 -10z"/>
<path d="M3635 4670 c3 -5 8 -10 11 -10 2 0 4 5 4 10 0 6 -5 10 -11 10 -5 0
-7 -4 -4 -10z"/>
<path d="M7497 4643 c-10 -10 -8 -23 4 -23 5 0 8 4 4 9 -3 5 3 12 12 14 14 4
15 5 2 6 -9 0 -19 -2 -22 -6z"/>
<path d="M7471 4576 c-17 -19 -20 -26 -9 -32 7 -4 10 -3 5 1 -4 5 3 19 15 32
12 13 19 23 16 23 -2 0 -15 -11 -27 -24z"/>
<path d="M7516 4577 c3 -10 9 -15 12 -12 3 3 0 11 -7 18 -10 9 -11 8 -5 -6z"/>
<path d="M3735 4509 c-4 -6 -5 -12 -2 -15 2 -3 7 2 10 11 7 17 1 20 -8 4z"/>
<path d="M7445 4509 c-4 -6 -14 -8 -24 -4 -12 5 -13 4 -4 -6 9 -9 16 -9 26 -1
8 7 18 8 22 4 5 -4 5 -1 1 6 -9 15 -13 15 -21 1z"/>
<path d="M3740 4476 c0 -2 7 -6 15 -10 8 -3 15 -1 15 4 0 6 -7 10 -15 10 -8 0
-15 -2 -15 -4z"/>
<path d="M3735 4450 c3 -5 8 -10 11 -10 2 0 4 5 4 10 0 6 -5 10 -11 10 -5 0
-7 -4 -4 -10z"/>
<path d="M7375 4440 c-10 -11 -15 -23 -12 -27 4 -3 7 -1 7 6 0 7 5 9 10 6 6
-4 9 -1 8 7 -2 7 3 12 10 11 6 -2 12 2 12 7 0 16 -15 12 -35 -10z"/>
<path d="M3826 4375 c4 -8 11 -15 16 -15 6 0 5 6 -2 15 -7 8 -14 15 -16 15 -2
0 -1 -7 2 -15z"/>
<path d="M3796 4372 c-3 -5 1 -9 9 -9 8 0 12 4 9 9 -3 4 -7 8 -9 8 -2 0 -6 -4
-9 -8z"/>
<path d="M7366 4372 c-3 -5 1 -9 9 -9 8 0 12 4 9 9 -3 4 -7 8 -9 8 -2 0 -6 -4
-9 -8z"/>
<path d="M7326 4348 c3 -5 10 -6 15 -3 13 9 11 12 -6 12 -8 0 -12 -4 -9 -9z"/>
<path d="M3834 4330 c0 -13 4 -16 10 -10 7 7 7 13 0 20 -6 6 -10 3 -10 -10z"/>
<path d="M7290 4316 c0 -2 7 -7 16 -10 8 -3 12 -2 9 4 -6 10 -25 14 -25 6z"/>
<path d="M7252 4277 c-20 -21 -20 -23 -3 -23 10 0 18 7 17 16 -1 8 5 14 12 13
6 -2 12 2 12 7 0 17 -15 11 -38 -13z"/>
<path d="M3876 4273 c-6 -14 -5 -15 5 -6 7 7 10 15 7 18 -3 3 -9 -2 -12 -12z"/>
<path d="M7204 4219 c-19 -22 -19 -22 4 -8 12 8 22 17 22 21 0 12 -6 9 -26
-13z"/>
<path d="M3950 4210 c0 -5 5 -10 11 -10 5 0 7 5 4 10 -3 6 -8 10 -11 10 -2 0
-4 -4 -4 -10z"/>
<path d="M7209 4193 c-13 -16 -12 -17 4 -4 9 7 17 15 17 17 0 8 -8 3 -21 -13z"/>
<path d="M3979 4178 c-8 -27 -5 -36 9 -30 10 4 12 7 4 10 -7 2 -10 8 -6 13 3
5 3 9 0 9 -3 0 -6 -1 -7 -2z"/>
<path d="M4010 4154 c0 -5 9 -15 21 -22 12 -7 18 -16 15 -19 -3 -3 -14 0 -23
8 -17 12 -17 12 -1 -6 12 -13 21 -16 28 -9 7 7 2 18 -15 34 -14 13 -25 19 -25
14z"/>
<path d="M7135 4130 c3 -5 8 -10 11 -10 2 0 4 5 4 10 0 6 -5 10 -11 10 -5 0
-7 -4 -4 -10z"/>
<path d="M7107 4123 c-13 -12 -7 -22 12 -20 15 1 17 4 9 14 -12 15 -13 15 -21
6z"/>
<path d="M7075 4089 c-6 -8 -4 -10 5 -4 10 6 12 4 6 -11 -6 -15 -5 -17 5 -6 9
9 10 15 2 23 -8 8 -13 7 -18 -2z"/>
<path d="M4118 4013 c7 -3 16 -2 19 1 4 3 -2 6 -13 5 -11 0 -14 -3 -6 -6z"/>
<path d="M6962 3988 c-15 -15 -15 -28 0 -28 6 0 8 3 5 7 -4 3 1 12 11 19 9 7
12 14 7 14 -6 0 -16 -5 -23 -12z"/>
<path d="M6970 3936 c0 -2 7 -7 16 -10 8 -3 12 -2 9 4 -6 10 -25 14 -25 6z"/>
<path d="M4240 3920 c-9 -6 -10 -10 -3 -10 6 0 15 5 18 10 8 12 4 12 -15 0z"/>
<path d="M6890 3908 c0 -6 3 -8 7 -5 3 4 13 1 22 -6 14 -11 14 -10 2 6 -15 20
-31 22 -31 5z"/>
<path d="M4270 3901 c0 -6 4 -13 10 -16 6 -3 7 1 4 9 -7 18 -14 21 -14 7z"/>
<path d="M4315 3870 c21 -24 26 -25 19 -6 -3 8 -13 17 -22 21 -13 5 -13 2 3
-15z"/>
<path d="M4350 3841 c0 -6 4 -13 10 -16 6 -3 7 1 4 9 -7 18 -14 21 -14 7z"/>
<path d="M6790 3819 c0 -5 5 -7 10 -4 6 3 10 8 10 11 0 2 -4 4 -10 4 -5 0 -10
-5 -10 -11z"/>
<path d="M6836 3817 c3 -10 9 -15 12 -12 3 3 0 11 -7 18 -10 9 -11 8 -5 -6z"/>
<path d="M6736 3757 c3 -10 9 -15 12 -12 3 3 0 11 -7 18 -10 9 -11 8 -5 -6z"/>
<path d="M4436 3743 c-6 -14 -5 -15 5 -6 7 7 10 15 7 18 -3 3 -9 -2 -12 -12z"/>
<path d="M4494 3749 c-4 -7 -3 -9 4 -5 5 3 13 0 15 -6 4 -9 6 -10 6 -1 1 17
-16 25 -25 12z"/>
<path d="M6696 3743 c-6 -14 -5 -15 5 -6 7 7 10 15 7 18 -3 3 -9 -2 -12 -12z"/>
<path d="M4470 3715 c0 -7 30 -13 34 -7 3 4 -4 9 -15 9 -10 1 -19 0 -19 -2z"/>
<path d="M6540 3691 c0 -5 7 -12 16 -15 14 -5 15 -4 4 9 -14 17 -20 19 -20 6z"/>
<path d="M4615 3679 c-4 -6 -5 -12 -2 -15 2 -3 7 2 10 11 7 17 1 20 -8 4z"/>
<path d="M6505 3670 c-3 -6 1 -7 9 -4 18 7 21 14 7 14 -6 0 -13 -4 -16 -10z"/>
<path d="M4667 3656 c-4 -10 -1 -13 8 -9 8 3 12 9 9 14 -7 12 -11 11 -17 -5z"/>
<path d="M6547 3649 c7 -7 15 -10 18 -7 3 3 -2 9 -12 12 -14 6 -15 5 -6 -5z"/>
<path d="M4690 3630 c0 -4 7 -7 15 -6 23 3 26 12 5 13 -11 1 -20 -2 -20 -7z"/>
<path d="M4735 3619 c-4 -6 -5 -12 -2 -15 2 -3 7 2 10 11 7 17 1 20 -8 4z"/>
<path d="M4776 3612 c-3 -4 4 -9 15 -9 23 -2 25 3 4 10 -8 4 -16 3 -19 -1z"/>
<path d="M4817 3588 c-3 -8 5 -14 20 -14 13 -1 23 -1 21 0 -2 1 -10 7 -19 14
-13 10 -18 10 -22 0z"/>
<path d="M4866 3553 c-6 -14 -5 -15 5 -6 7 7 10 15 7 18 -3 3 -9 -2 -12 -12z"/>
<path d="M4920 3545 c-11 -13 -10 -14 4 -9 9 3 16 10 16 15 0 13 -6 11 -20 -6z"/>
<path d="M6129 3513 c-13 -16 -12 -17 4 -4 16 13 21 21 13 21 -2 0 -10 -8 -17
-17z"/>
<path d="M5000 3510 c-12 -7 -10 -9 8 -7 12 0 22 5 22 9 0 11 -12 10 -30 -2z"/>
<path d="M6156 3512 c-3 -5 1 -9 9 -9 8 0 12 4 9 9 -3 4 -7 8 -9 8 -2 0 -6 -4
-9 -8z"/>
<path d="M5070 3475 c0 -7 30 -13 34 -7 3 4 -4 9 -15 9 -10 1 -19 0 -19 -2z"/>
<path d="M5205 3470 c3 -5 8 -10 11 -10 2 0 4 5 4 10 0 6 -5 10 -11 10 -5 0
-7 -4 -4 -10z"/>
<path d="M5266 3467 c3 -10 9 -15 12 -12 3 3 0 11 -7 18 -10 9 -11 8 -5 -6z"/>
<path d="M5299 3463 c-13 -16 -12 -17 4 -4 9 7 17 15 17 17 0 8 -8 3 -21 -13z"/>
<path d="M5950 3466 c0 -8 4 -18 10 -21 6 -4 7 1 3 11 -5 13 -3 15 7 9 9 -5
11 -4 6 3 -10 17 -26 15 -26 -2z"/>
<path d="M5432 3454 c-7 -8 -8 -14 -3 -14 10 0 25 19 20 25 -2 1 -10 -3 -17
-11z"/>
<path d="M5510 3448 c0 -4 4 -8 9 -8 6 0 12 4 15 8 3 5 -1 9 -9 9 -8 0 -15 -4
-15 -9z"/>
<path d="M5670 3455 c0 -5 5 -17 10 -25 5 -8 10 -10 10 -5 0 6 -5 17 -10 25
-5 8 -10 11 -10 5z"/>
<path d="M5371 3434 c0 -11 3 -14 6 -6 3 7 2 16 -1 19 -3 4 -6 -2 -5 -13z"/>
<path d="M5546 3434 c-19 -19 -21 -31 -3 -15 8 6 18 7 22 3 5 -4 5 -2 2 5 -4
6 -1 14 5 16 9 4 9 6 1 6 -6 1 -19 -6 -27 -15z"/>
<path d="M5474 3432 c4 -3 14 -7 22 -8 9 -1 13 0 10 4 -4 3 -14 7 -22 8 -9 1
-13 0 -10 -4z"/>
<path d="M5585 3430 c-2 -3 7 -6 21 -6 13 0 24 3 24 7 0 9 -40 8 -45 -1z"/>
</g>
</svg>
